# xmcd
#
# Track frame offsets: 
#        150
#        12481
#        26685
#        39299
#        52786
#        65124
#        77630
#        90922
#        103169
#        115395
#        128144
#        141535
#        154320
#        166643
#        178472
#        190449
#        203304
#        216048
#        229342
#        241424
#        253808
#
# Disc length: 3564 seconds
#
# Revision: 3
# Processed by: cddbd v1.5.2PL0 Copyright (c) Steve Scherf et al.
# Submitted via: ExactAudioCopy v0.99pb5
#
DISCID=270dea15
DTITLE=Tommy McClennan - The Bluebird Recordings:  1939 - 1942
DYEAR=1900
DGENRE=blues
TTITLE0=You Can Mistreat Me Here
TTITLE1=New Shake Em On Down
TTITLE2=Bottle It Up And Go
TTITLE3=Whisky Head Woman
TTITLE4=Brown Skin Girl
TTITLE5=Cotton Patch Blues
TTITLE6=Baby Don't You Want To Go?
TTITLE7=Baby, Please Don't Tell On Me
TTITLE8=I'm Going Don't You Know
TTITLE9=New Highway 51
TTITLE10=She's Just Good Huggin' Size
TTITLE11=My Little Girl
TTITLE12=My Baby's Gone
TTITLE13=It's Hard To Be Lonesome
TTITLE14=My Baby's Doggin' Me
TTITLE15=She's A Good Looking Mama
TTITLE16=Whiskey Head Man
TTITLE17=New Sugar Mama
TTITLE18=Down To Skin And Bones Blues
TTITLE19=Katy Mae Blues
TTITLE20=Love With A Feeling
EXTD=Submitted 6/12/98\nJRM
EXTT0=
EXTT1=
EXTT2=
EXTT3=
EXTT4=
EXTT5=
EXTT6=
EXTT7=
EXTT8=
EXTT9=
EXTT10=
EXTT11=
EXTT12=
EXTT13=
EXTT14=
EXTT15=
EXTT16=
EXTT17=
EXTT18=
EXTT19=
EXTT20=
PLAYORDER=
